<svg xmlns="http://www.w3.org/2000/svg">
    <defs>
      <g id="twitter">
        <path d="M18.0804 2.41071C17.5818 3.13988 16.9792 3.76116 16.2723 4.27455C16.2798 4.37872 16.2835 4.53497 16.2835 4.7433C16.2835 5.71057 16.1421 6.67783 15.8594 7.64509C15.5766 8.60491 15.1451 9.52753 14.5647 10.4129C13.9918 11.2984 13.3073 12.0833 12.5112 12.7679C11.715 13.4449 10.7552 13.9881 9.6317 14.3973C8.50818 14.7991 7.30655 15 6.02679 15C4.01042 15 2.16518 14.4606 0.491071 13.3817C0.751488 13.4115 1.04167 13.4263 1.36161 13.4263C3.03571 13.4263 4.52753 12.9129 5.83705 11.8862C5.0558 11.8713 4.3564 11.6332 3.73884 11.1719C3.12128 10.7031 2.69717 10.1079 2.46652 9.38616C2.71205 9.42336 2.93899 9.44196 3.14732 9.44196C3.46726 9.44196 3.78348 9.40104 4.09598 9.3192C3.26265 9.14807 2.57068 8.73512 2.02009 8.08036C1.47693 7.41815 1.20536 6.65179 1.20536 5.78125V5.73661C1.71131 6.01935 2.25446 6.17188 2.83482 6.1942C2.34375 5.86682 1.95312 5.43899 1.66295 4.91071C1.37277 4.38244 1.22768 3.80952 1.22768 3.19196C1.22768 2.5372 1.39137 1.9308 1.71875 1.37277C2.61905 2.4814 3.7128 3.37054 5 4.04018C6.29464 4.70238 7.67857 5.07068 9.15179 5.14509C9.09226 4.86235 9.0625 4.58705 9.0625 4.3192C9.0625 3.32217 9.4122 2.47396 10.1116 1.77455C10.8185 1.06771 11.6704 0.714285 12.6674 0.714285C13.7091 0.714285 14.5871 1.09375 15.3013 1.85268C16.1124 1.69643 16.875 1.40625 17.5893 0.982143C17.314 1.8378 16.7857 2.5 16.0045 2.96875C16.6964 2.89435 17.3884 2.70833 18.0804 2.41071Z" fill="white"/>
      </g>
      <g id="facebook">
        <path d="M13.9286 0.285713H3.21429C1.43973 0.285713 0 1.72545 0 3.5V14.2143C0 15.9888 1.43973 17.4286 3.21429 17.4286H9.15179V10.7879H6.91964V8.19866H9.15179V6.29018C9.15179 4.08036 10.5134 2.875 12.4888 2.875C13.4263 2.875 14.2411 2.94196 14.4754 2.97545V5.28571L13.1138 5.29688C12.0312 5.29688 11.8304 5.79911 11.8304 6.54687V8.19866H14.3862L14.0513 10.7879H11.8304V17.4286H13.9286C15.7031 17.4286 17.1429 15.9888 17.1429 14.2143V3.5C17.1429 1.72545 15.7031 0.285713 13.9286 0.285713Z" fill="white"/>
      </g>  
            <g id="arrow">
              <path d="M21 14H7" />
              <path d="M14 21L7 14L14 7" />
      </g>
    </defs>  
</svg>    