<?xml version="1.0" encoding="utf-8"?>
<!-- Generator: Adobe Illustrator 24.1.1, SVG Export Plug-In . SVG Version: 6.00 Build 0)  -->
<svg version="1.1" id="Layer_1" xmlns="http://www.w3.org/2000/svg" xmlns:xlink="http://www.w3.org/1999/xlink" x="0px" y="0px"
	 viewBox="0 0 24 20" style="enable-background:new 0 0 24 20;" xml:space="preserve">
<style type="text/css">
	.st0{fill:#E6E6E6;}
</style>
<path class="st0" d="M18.8,7.7c-0.2,0-0.3,0-0.6,0.1c-0.3-3.3-3-5.8-6.3-5.8C9.1,2,6.7,4,5.9,6.6c-0.1,0-0.1,0-0.2,0
	C2.5,6.6,0,9.1,0,12.3S2.5,18,5.7,18h13.7c2.5-0.3,4.6-2.5,4.6-5.1C23.9,10,21.6,7.7,18.8,7.7z M11.8,17.1l-5.3-5.3h3.3V6.7h4.3v5.2
	h3L11.8,17.1z"/>
</svg>
